<svg width="113" height="125" viewBox="0 0 113 125" fill="none" xmlns="http://www.w3.org/2000/svg">
<path d="M50 125C35.5208 121.354 23.5677 113.047 14.1406 100.078C4.71354 87.1094 0 72.7083 0 56.875V18.75L50 0L100 18.75V56.875C100 57.9167 99.974 58.9583 99.9219 60C99.8698 61.0417 99.7917 62.0833 99.6875 63.125C98.75 62.9167 97.7865 62.7604 96.7969 62.6562C95.8073 62.5521 94.7917 62.5 93.75 62.5C92.6042 62.5 91.5104 62.5521 90.4688 62.6562C89.4271 62.7604 88.3333 62.9167 87.1875 63.125C87.2917 62.0833 87.3698 61.0677 87.4219 60.0781C87.474 59.0885 87.5 58.0208 87.5 56.875V27.3437L50 13.2812L12.5 27.3437V56.875C12.5 69.4792 16.0417 80.9375 23.125 91.25C30.2083 101.562 39.1667 108.437 50 111.875C52.1875 111.146 54.3229 110.26 56.4062 109.219C58.4896 108.177 60.5208 106.979 62.5 105.625V120.312C60.5208 121.354 58.4896 122.266 56.4062 123.047C54.3229 123.828 52.1875 124.479 50 125ZM80.3125 125C78.8542 125 77.6042 124.479 76.5625 123.437C75.5208 122.396 75 121.146 75 119.687V99.0625C75 97.6042 75.5208 96.3542 76.5625 95.3125C77.6042 94.2708 78.8542 93.75 80.3125 93.75H81.25V87.5C81.25 84.0625 82.474 81.1198 84.9219 78.6719C87.3698 76.224 90.3125 75 93.75 75C97.1875 75 100.13 76.224 102.578 78.6719C105.026 81.1198 106.25 84.0625 106.25 87.5V93.75H107.188C108.646 93.75 109.896 94.2708 110.938 95.3125C111.979 96.3542 112.5 97.6042 112.5 99.0625V119.687C112.5 121.146 111.979 122.396 110.938 123.437C109.896 124.479 108.646 125 107.188 125H80.3125ZM87.5 93.75H100V87.5C100 85.7292 99.401 84.2448 98.2031 83.0469C97.0052 81.849 95.5208 81.25 93.75 81.25C91.9792 81.25 90.4948 81.849 89.2969 83.0469C88.099 84.2448 87.5 85.7292 87.5 87.5V93.75Z" fill="#00B1FF" fill-opacity="0.5"/>
</svg>
